HIERARCHY
ROOT mixamorig:Hips
{
	OFFSET -0.000008 104.274872 1.554316
	CHANNELS 6 Xposition Yposition Zposition Xrotation Yrotation Zrotation
	JOINT mixamorig:Spine
	{
		OFFSET -0.000005 10.181595 0.131519
		CHANNELS 6 Xposition Yposition Zposition Xrotation Yrotation Zrotation
		JOINT mixamorig:Spine1
		{
			OFFSET -0.000000 9.893959 -1.470707
			CHANNELS 6 Xposition Yposition Zposition Xrotation Yrotation Zrotation
			JOINT mixamorig:Spine2
			{
				OFFSET -0.000000 9.220757 -1.370641
				CHANNELS 6 Xposition Yposition Zposition Xrotation Yrotation Zrotation
				JOINT mixamorig:Neck
				{
					OFFSET 0.000001 16.740417 -2.049036
					CHANNELS 6 Xposition Yposition Zposition Xrotation Yrotation Zrotation
					JOINT mixamorig:Head
					{
						OFFSET 0.000000 9.617874 1.685006
						CHANNELS 6 Xposition Yposition Zposition Xrotation Yrotation Zrotation
						JOINT mixamorig:HeadTop_End
						{
							OFFSET 0.000002 22.037354 7.501101
							CHANNELS 6 Xposition Yposition Zposition Xrotation Yrotation Zrotation
							End Site
							{
								OFFSET 0.000168 2310.654297 -282.823242
							}
						}
					}
				}
				JOINT mixamorig:RightShoulder
				{
					OFFSET -4.569970 11.014908 -2.160885
					CHANNELS 6 Xposition Yposition Zposition Xrotation Yrotation Zrotation
					JOINT mixamorig:RightArm
					{
						OFFSET -10.592851 -0.524811 -2.232101
						CHANNELS 6 Xposition Yposition Zposition Xrotation Yrotation Zrotation
						JOINT mixamorig:RightForeArm
						{
							OFFSET -27.841511 0.000031 -0.000004
							CHANNELS 6 Xposition Yposition Zposition Xrotation Yrotation Zrotation
							JOINT mixamorig:RightHand
							{
								OFFSET -28.328831 -0.000015 0.000015
								CHANNELS 6 Xposition Yposition Zposition Xrotation Yrotation Zrotation
								JOINT mixamorig:RightHandThumb1
								{
									OFFSET -2.464806 -1.573990 2.681852
									CHANNELS 6 Xposition Yposition Zposition Xrotation Yrotation Zrotation
									JOINT mixamorig:RightHandThumb2
									{
										OFFSET -3.215179 -1.872803 1.924282
										CHANNELS 6 Xposition Yposition Zposition Xrotation Yrotation Zrotation
										JOINT mixamorig:RightHandThumb3
										{
											OFFSET -2.654831 -1.527969 1.512609
											CHANNELS 6 Xposition Yposition Zposition Xrotation Yrotation Zrotation
											JOINT mixamorig:RightHandThumb4
											{
												OFFSET -2.018814 -1.152008 1.108052
												CHANNELS 6 Xposition Yposition Zposition Xrotation Yrotation Zrotation
												End Site
												{
													OFFSET -188.809540 -114.533607 132.431396
												}
											}
										}
									}
								}
								JOINT mixamorig:RightHandIndex1
								{
									OFFSET -9.108284 -0.517868 2.259835
									CHANNELS 6 Xposition Yposition Zposition Xrotation Yrotation Zrotation
									JOINT mixamorig:RightHandIndex2
									{
										OFFSET -3.699989 0.000000 0.001215
										CHANNELS 6 Xposition Yposition Zposition Xrotation Yrotation Zrotation
										JOINT mixamorig:RightHandIndex3
										{
											OFFSET -2.850006 0.000031 -0.000522
											CHANNELS 6 Xposition Yposition Zposition Xrotation Yrotation Zrotation
											JOINT mixamorig:RightHandIndex4
											{
												OFFSET -2.772186 -0.000015 -0.000020
												CHANNELS 6 Xposition Yposition Zposition Xrotation Yrotation Zrotation
												End Site
												{
													OFFSET -277.218445 0.000000 -0.050231
												}
											}
										}
									}
								}
								JOINT mixamorig:RightHandMiddle1
								{
									OFFSET -9.532516 -0.000031 -0.000023
									CHANNELS 6 Xposition Yposition Zposition Xrotation Yrotation Zrotation
									JOINT mixamorig:RightHandMiddle2
									{
										OFFSET -3.700005 -0.000015 0.003713
										CHANNELS 6 Xposition Yposition Zposition Xrotation Yrotation Zrotation
										JOINT mixamorig:RightHandMiddle3
										{
											OFFSET -2.949974 0.000015 -0.002054
											CHANNELS 6 Xposition Yposition Zposition Xrotation Yrotation Zrotation
											JOINT mixamorig:RightHandMiddle4
											{
												OFFSET -2.946640 0.000000 -0.000156
												CHANNELS 6 Xposition Yposition Zposition Xrotation Yrotation Zrotation
												End Site
												{
													OFFSET -294.664337 0.000000 -0.113670
												}
											}
										}
									}
								}
								JOINT mixamorig:RightHandRing1
								{
									OFFSET -9.103600 -0.043076 -1.865134
									CHANNELS 6 Xposition Yposition Zposition Xrotation Yrotation Zrotation
									JOINT mixamorig:RightHandRing2
									{
										OFFSET -3.379288 0.000000 -0.001055
										CHANNELS 6 Xposition Yposition Zposition Xrotation Yrotation Zrotation
										JOINT mixamorig:RightHandRing3
										{
											OFFSET -2.889687 -0.000015 0.000379
											CHANNELS 6 Xposition Yposition Zposition Xrotation Yrotation Zrotation
											JOINT mixamorig:RightHandRing4
											{
												OFFSET -2.638809 -0.000015 0.000941
												CHANNELS 6 Xposition Yposition Zposition Xrotation Yrotation Zrotation
												End Site
												{
													OFFSET -263.880371 0.000000 0.516020
												}
											}
										}
									}
								}
								JOINT mixamorig:RightHandPinky1
								{
									OFFSET -8.076683 -0.486710 -3.806280
									CHANNELS 6 Xposition Yposition Zposition Xrotation Yrotation Zrotation
									JOINT mixamorig:RightHandPinky2
									{
										OFFSET -3.600014 -0.000015 -0.003747
										CHANNELS 6 Xposition Yposition Zposition Xrotation Yrotation Zrotation
										JOINT mixamorig:RightHandPinky3
										{
											OFFSET -2.099983 0.000000 -0.005739
											CHANNELS 6 Xposition Yposition Zposition Xrotation Yrotation Zrotation
											JOINT mixamorig:RightHandPinky4
											{
												OFFSET -2.115768 -0.000031 -0.003680
												CHANNELS 6 Xposition Yposition Zposition Xrotation Yrotation Zrotation
												End Site
												{
													OFFSET -211.577087 0.000000 -0.350686
												}
											}
										}
									}
								}
							}
						}
					}
				}
				JOINT mixamorig:LeftShoulder
				{
					OFFSET 4.570447 11.014725 -2.160855
					CHANNELS 6 Xposition Yposition Zposition Xrotation Yrotation Zrotation
					JOINT mixamorig:LeftArm
					{
						OFFSET 10.592371 -0.524597 -2.232119
						CHANNELS 6 Xposition Yposition Zposition Xrotation Yrotation Zrotation
						JOINT mixamorig:LeftForeArm
						{
							OFFSET 27.841532 -0.000031 0.000026
							CHANNELS 6 Xposition Yposition Zposition Xrotation Yrotation Zrotation
							JOINT mixamorig:LeftHand
							{
								OFFSET 28.328846 -0.000061 0.000022
								CHANNELS 6 Xposition Yposition Zposition Xrotation Yrotation Zrotation
								JOINT mixamorig:LeftHandThumb1
								{
									OFFSET 2.466141 -1.576172 2.681732
									CHANNELS 6 Xposition Yposition Zposition Xrotation Yrotation Zrotation
									JOINT mixamorig:LeftHandThumb2
									{
										OFFSET 3.217812 -1.872070 1.916482
										CHANNELS 6 Xposition Yposition Zposition Xrotation Yrotation Zrotation
										JOINT mixamorig:LeftHandThumb3
										{
											OFFSET 2.656029 -1.528778 1.514513
											CHANNELS 6 Xposition Yposition Zposition Xrotation Yrotation Zrotation
											JOINT mixamorig:LeftHandThumb4
											{
												OFFSET 2.020889 -1.154053 1.115139
												CHANNELS 6 Xposition Yposition Zposition Xrotation Yrotation Zrotation
												End Site
												{
													OFFSET 190.885437 -115.081749 130.048782
												}
											}
										}
									}
								}
								JOINT mixamorig:LeftHandIndex1
								{
									OFFSET 9.109314 -0.518021 2.259871
									CHANNELS 6 Xposition Yposition Zposition Xrotation Yrotation Zrotation
									JOINT mixamorig:LeftHandIndex2
									{
										OFFSET 3.699989 0.000000 -0.000322
										CHANNELS 6 Xposition Yposition Zposition Xrotation Yrotation Zrotation
										JOINT mixamorig:LeftHandIndex3
										{
											OFFSET 2.850006 0.000000 0.000352
											CHANNELS 6 Xposition Yposition Zposition Xrotation Yrotation Zrotation
											JOINT mixamorig:LeftHandIndex4
											{
												OFFSET 2.774864 -0.000031 -0.000027
												CHANNELS 6 Xposition Yposition Zposition Xrotation Yrotation Zrotation
												End Site
												{
													OFFSET 277.486267 0.000000 -0.009857
												}
											}
										}
									}
								}
								JOINT mixamorig:LeftHandMiddle1
								{
									OFFSET 9.533394 0.000061 0.000044
									CHANNELS 6 Xposition Yposition Zposition Xrotation Yrotation Zrotation
									JOINT mixamorig:LeftHandMiddle2
									{
										OFFSET 3.699989 -0.000015 -0.000231
										CHANNELS 6 Xposition Yposition Zposition Xrotation Yrotation Zrotation
										JOINT mixamorig:LeftHandMiddle3
										{
											OFFSET 2.949997 -0.000015 -0.000059
											CHANNELS 6 Xposition Yposition Zposition Xrotation Yrotation Zrotation
											JOINT mixamorig:LeftHandMiddle4
											{
												OFFSET 2.952896 0.000031 0.000063
												CHANNELS 6 Xposition Yposition Zposition Xrotation Yrotation Zrotation
												End Site
												{
													OFFSET 295.289337 0.000000 0.022810
												}
											}
										}
									}
								}
								JOINT mixamorig:LeftHandRing1
								{
									OFFSET 9.104523 -0.042999 -1.865074
									CHANNELS 6 Xposition Yposition Zposition Xrotation Yrotation Zrotation
									JOINT mixamorig:LeftHandRing2
									{
										OFFSET 3.150009 -0.000031 0.000043
										CHANNELS 6 Xposition Yposition Zposition Xrotation Yrotation Zrotation
										JOINT mixamorig:LeftHandRing3
										{
											OFFSET 2.949982 -0.000015 0.000040
											CHANNELS 6 Xposition Yposition Zposition Xrotation Yrotation Zrotation
											JOINT mixamorig:LeftHandRing4
											{
												OFFSET 2.644348 0.000000 0.000057
												CHANNELS 6 Xposition Yposition Zposition Xrotation Yrotation Zrotation
												End Site
												{
													OFFSET 264.434631 0.000000 0.012105
												}
											}
										}
									}
								}
								JOINT mixamorig:LeftHandPinky1
								{
									OFFSET 8.077789 -0.486847 -3.806259
									CHANNELS 6 Xposition Yposition Zposition Xrotation Yrotation Zrotation
									JOINT mixamorig:LeftHandPinky2
									{
										OFFSET 3.599953 0.000031 0.014727
										CHANNELS 6 Xposition Yposition Zposition Xrotation Yrotation Zrotation
										JOINT mixamorig:LeftHandPinky3
										{
											OFFSET 2.100021 0.000015 0.007705
											CHANNELS 6 Xposition Yposition Zposition Xrotation Yrotation Zrotation
											JOINT mixamorig:LeftHandPinky4
											{
												OFFSET 2.125504 0.000031 0.007517
												CHANNELS 6 Xposition Yposition Zposition Xrotation Yrotation Zrotation
												End Site
												{
													OFFSET 212.550781 0.000000 0.625752
												}
											}
										}
									}
								}
							}
						}
					}
				}
			}
		}
	}
	JOINT mixamorig:RightUpLeg
	{
		OFFSET -8.207787 -6.751648 -1.599560
		CHANNELS 6 Xposition Yposition Zposition Xrotation Yrotation Zrotation
		JOINT mixamorig:RightLeg
		{
			OFFSET -0.000002 -44.370117 0.345942
			CHANNELS 6 Xposition Yposition Zposition Xrotation Yrotation Zrotation
			JOINT mixamorig:RightFoot
			{
				OFFSET 0.000003 -44.423679 -3.043532
				CHANNELS 6 Xposition Yposition Zposition Xrotation Yrotation Zrotation
				JOINT mixamorig:RightToeBase
				{
					OFFSET -0.000002 -8.728671 10.710558
					CHANNELS 6 Xposition Yposition Zposition Xrotation Yrotation Zrotation
					JOINT mixamorig:RightToe_End
					{
						OFFSET -0.000001 -0.000679 9.278119
						CHANNELS 6 Xposition Yposition Zposition Xrotation Yrotation Zrotation
						End Site
						{
							OFFSET 0.000000 -0.067690 927.812134
						}
					}
				}
			}
		}
	}
	JOINT mixamorig:LeftUpLeg
	{
		OFFSET 8.207793 -6.751686 -1.599556
		CHANNELS 6 Xposition Yposition Zposition Xrotation Yrotation Zrotation
		JOINT mixamorig:LeftLeg
		{
			OFFSET -0.000004 -44.370014 0.346954
			CHANNELS 6 Xposition Yposition Zposition Xrotation Yrotation Zrotation
			JOINT mixamorig:LeftFoot
			{
				OFFSET -0.000001 -44.423672 -3.044401
				CHANNELS 6 Xposition Yposition Zposition Xrotation Yrotation Zrotation
				JOINT mixamorig:LeftToeBase
				{
					OFFSET -0.000002 -8.728669 10.710558
					CHANNELS 6 Xposition Yposition Zposition Xrotation Yrotation Zrotation
					JOINT mixamorig:LeftToe_End
					{
						OFFSET -0.000003 -0.000679 9.278133
						CHANNELS 6 Xposition Yposition Zposition Xrotation Yrotation Zrotation
						End Site
						{
							OFFSET 0.000000 -0.068021 927.813477
						}
					}
				}
			}
		}
	}
}
MOTION
Frames: 3
Frame Time: 0.033333
0.000006 104.270477 1.554256 0.000010 0.000003 -0.000113 -0.000005 10.181587 0.131522 0.000001 -0.000003 0.000084 -0.000000 9.893967 -1.470711 0.000001 0.000000 -0.000000 -0.000000 9.220802 -1.370642 0.000000 -0.000000 -0.000000 0.000001 16.740433 -2.049030 0.000000 -0.000000 -0.000000 0.000000 9.617859 1.685014 0.000000 0.000000 0.000000 0.000002 22.037384 7.501101 0.000000 -0.000000 0.000000 -4.569968 11.014880 -2.160881 0.000008 0.000001 -0.000038 -10.592877 -0.524755 -2.231910 74.629645 26.543438 -20.383590 -27.841524 0.000020 0.000545 -57.633560 107.621959 73.883925 -28.328821 0.000020 0.000029 -0.000320 -0.000045 0.000007 -2.464430 -1.573906 2.682374 -33.566845 -154.836714 20.429861 -3.215203 -1.872481 1.924605 143.874588 33.733905 43.738998 -2.654963 -1.527847 1.513054 151.362374 27.657827 -24.667450 -2.018809 -1.151996 1.108062 -0.000001 -0.000006 0.000007 -9.108381 -0.517570 2.260180 112.709289 14.502317 -21.714922 -3.700063 0.000309 0.001562 109.014279 13.180108 -18.371829 -2.850097 0.000365 -0.000201 107.962744 11.109320 -15.236542 -2.772155 -0.000001 -0.000022 0.000000 -0.000001 -0.000000 -9.532589 0.000282 0.000272 102.937474 13.674201 -17.298969 -3.700055 0.000330 0.004017 103.276251 11.712788 -14.648649 -2.950074 0.000337 -0.001754 102.649834 10.531864 -13.128202 -2.946610 0.000000 -0.000152 0.000000 0.000002 0.000000 -9.103708 -0.042743 -1.864856 99.544038 15.529846 -18.262806 -3.379331 0.000323 -0.000763 101.301671 8.870158 -10.828702 -2.889749 0.000368 0.000686 105.196053 5.720484 -7.535783 -2.638800 -0.000005 0.000939 0.000001 -0.000001 -0.000001 -8.076741 -0.486380 -3.806056 82.679105 16.099039 -14.052013 -3.600028 0.000282 -0.003519 89.478210 7.075625 -6.666202 -2.100004 0.000331 -0.005472 94.581400 3.282797 -3.326763 -2.115772 -0.000038 -0.003679 0.000002 -0.000001 -0.000005 4.570446 11.014691 -2.160851 -0.000018 0.000010 -0.000021 10.592387 -0.524487 -2.232345 73.989834 -7.922716 5.973300 27.841822 0.000068 -0.000183 102.239695 -71.058256 83.054568 28.328854 -0.000028 0.000025 0.000022 -0.000089 -0.000000 2.465987 -1.576153 2.681912 -37.735515 155.817379 -11.586112 3.217735 -1.871698 1.916367 153.366994 -33.560114 -17.422966 2.656087 -1.528604 1.514436 147.391179 -26.934571 35.040479 2.020895 -1.154057 1.115146 0.000004 0.000003 0.000004 9.109359 -0.517831 2.259738 93.530719 -14.408344 15.301277 3.700035 0.000172 -0.000461 90.739330 -13.148348 13.334746 2.850061 0.000218 0.000207 90.076501 -11.829761 11.844165 2.774904 -0.000029 -0.000025 0.000004 -0.000002 -0.000001 9.533455 0.000263 -0.000098 94.736281 -13.377348 14.510342 3.700064 0.000200 -0.000369 94.781791 -12.292278 13.351293 2.950084 0.000181 -0.000198 96.654021 -16.292894 18.275426 2.952867 -0.000017 0.000058 -0.000003 -0.000000 -0.000000 9.104589 -0.042811 -1.865211 94.054116 -13.335386 14.306244 3.150064 0.000231 -0.000089 99.302160 -12.502663 14.696882 2.950037 0.000199 -0.000046 103.025726 -14.734747 18.476020 2.644307 0.000046 0.000056 -0.000001 0.000000 0.000001 8.077839 -0.486709 -3.806395 82.777303 -16.220466 14.833829 3.600003 0.000209 0.014571 84.164227 -13.007087 12.214280 2.100059 0.000195 0.007554 88.064361 -12.894233 12.940047 2.125516 0.000000 0.007517 0.000000 0.000000 -0.000002 -8.207786 -6.751667 -1.599560 -0.077001 -0.000003 0.000080 -0.000002 -44.370110 0.345938 0.153719 -0.000000 -0.000000 0.000000 -44.423679 -3.043532 -0.076700 0.000000 -0.000002 -0.000006 -8.728667 10.710559 -0.000009 -0.000000 -0.000000 -0.000001 -0.000679 9.278123 0.000000 -0.000000 -0.000000 8.207792 -6.751710 -1.599556 -0.074518 -0.000003 0.000081 -0.000002 -44.370014 0.346960 0.148822 0.000002 0.000000 -0.000001 -44.423664 -3.044403 -0.074314 0.000000 -0.000002 -0.000004 -8.728671 10.710558 0.000007 -0.000000 -0.000000 0.000000 -0.000680 9.278137 -0.000000 0.000000 -0.000001 
0.000006 104.270477 1.554256 0.000010 0.000003 -0.000113 -0.000005 10.181587 0.131522 0.000001 -0.000003 0.000084 -0.000000 9.893967 -1.470711 0.000001 0.000000 -0.000000 -0.000000 9.220802 -1.370642 0.000000 -0.000000 -0.000000 0.000001 16.740433 -2.049030 0.000000 -0.000000 -0.000000 0.000000 9.617859 1.685014 0.000000 0.000000 0.000000 0.000002 22.037384 7.501101 0.000000 -0.000000 0.000000 -4.569968 11.014880 -2.160881 0.000008 0.000001 -0.000038 -10.592880 -0.524730 -2.231948 73.655162 21.939561 -16.517756 -27.841534 -0.000002 0.000554 -55.955932 108.131436 72.477022 -28.328817 0.000021 0.000029 -0.000319 -0.000045 0.000009 -2.464433 -1.573765 2.682311 -48.727106 -163.737243 -12.119356 -3.215202 -1.872456 1.924610 142.143094 33.173088 46.393104 -2.654979 -1.527879 1.513061 150.954912 28.174428 -20.769118 -2.018819 -1.152013 1.108069 0.000001 -0.000001 0.000002 -9.108392 -0.517558 2.260173 111.151541 15.115359 -21.980199 -3.700073 0.000303 0.001546 107.138334 13.435512 -18.102078 -2.850078 0.000362 -0.000217 105.405358 11.219416 -14.693953 -2.772147 0.000000 -0.000016 -0.000000 -0.000001 -0.000000 -9.532607 0.000259 0.000291 102.045909 17.846226 -22.141091 -3.700078 0.000322 0.004021 101.628714 14.378371 -17.473695 -2.950074 0.000330 -0.001745 104.196059 12.316860 -15.772063 -2.946624 -0.000015 -0.000155 -0.000001 0.000000 -0.000000 -9.103718 -0.042765 -1.864841 97.226261 20.618331 -23.274080 -3.379348 0.000319 -0.000768 99.172393 12.085299 -14.194312 -2.889757 0.000363 0.000658 106.520878 7.613310 -10.249107 -2.638827 -0.000004 0.000937 -0.000001 0.000001 0.000001 -8.076771 -0.486413 -3.806028 83.622976 20.856423 -18.556241 -3.600077 0.000276 -0.003530 87.997896 10.923171 -10.196368 -2.100042 0.000322 -0.005463 93.657446 5.701962 -5.843427 -2.115777 -0.000054 -0.003680 0.000002 0.000001 -0.000003 4.570446 11.014691 -2.160851 -0.000018 0.000010 -0.000021 10.592366 -0.524506 -2.232309 74.011301 2.276960 -1.716180 27.841824 0.000074 -0.000182 102.536623 -70.477737 82.746123 28.328846 -0.000044 0.000023 0.000019 -0.000089 0.000000 2.466105 -1.576183 2.681891 -24.035634 156.677750 -40.198658 3.217766 -1.871704 1.916377 159.690178 -33.797405 -11.412580 2.656104 -1.528635 1.514458 148.088050 -25.551560 46.522734 2.020902 -1.154071 1.115145 0.000002 0.000001 0.000004 9.109389 -0.517857 2.259732 93.024082 -17.534484 18.456109 3.700042 0.000171 -0.000483 90.853243 -11.715218 11.906652 2.850048 0.000202 0.000210 89.557966 -8.514299 8.447869 2.774864 -0.000031 -0.000026 0.000001 0.000002 -0.000000 9.533473 0.000231 -0.000078 94.083670 -15.883405 17.031702 3.700030 0.000208 -0.000377 95.847799 -9.095515 10.067011 2.950051 0.000217 -0.000197 96.482918 -10.250382 11.476559 2.952873 -0.000031 0.000060 0.000000 0.000002 0.000000 9.104594 -0.042840 -1.865211 94.203567 -14.977341 16.106167 3.150035 0.000252 -0.000100 100.559844 -9.298470 11.183204 2.950027 0.000210 -0.000086 102.736188 -9.536312 11.918907 2.644327 0.000031 0.000064 -0.000002 -0.000000 -0.000001 8.077842 -0.486719 -3.806411 86.373964 -17.148947 16.665677 3.600001 0.000212 0.014577 88.029910 -13.509578 13.550172 2.100044 0.000199 0.007544 89.387997 -10.667273 11.024040 2.125517 -0.000031 0.007509 0.000000 0.000001 -0.000003 -8.207786 -6.751667 -1.599560 -0.077001 -0.000003 0.000080 -0.000002 -44.370110 0.345938 0.153719 -0.000000 -0.000000 0.000000 -44.423679 -3.043532 -0.076700 0.000000 -0.000002 -0.000006 -8.728667 10.710559 -0.000009 -0.000000 -0.000000 -0.000001 -0.000679 9.278123 0.000000 -0.000000 -0.000000 8.207792 -6.751710 -1.599556 -0.074518 -0.000003 0.000081 -0.000002 -44.370014 0.346960 0.148822 0.000002 0.000000 -0.000001 -44.423664 -3.044403 -0.074314 0.000000 -0.000002 -0.000004 -8.728671 10.710558 0.000007 -0.000000 -0.000000 0.000000 -0.000680 9.278137 -0.000000 0.000000 -0.000001 
0.000006 104.270477 1.554256 0.000010 0.000003 -0.000113 -0.000005 10.181587 0.131522 0.000001 -0.000003 0.000084 -0.000000 9.893967 -1.470711 0.000001 0.000000 -0.000000 -0.000000 9.220802 -1.370642 0.000000 -0.000000 -0.000000 0.000001 16.740433 -2.049030 0.000000 -0.000000 -0.000000 0.000000 9.617859 1.685014 0.000000 0.000000 0.000000 0.000002 22.037384 7.501101 0.000000 -0.000000 0.000000 -4.569968 11.014880 -2.160881 0.000008 0.000001 -0.000038 -10.592875 -0.524772 -2.231903 73.376442 29.944765 -22.537522 -27.841518 0.000016 0.000530 -55.042930 106.179471 69.498466 -28.328840 0.000007 0.000026 -0.000320 -0.000044 0.000005 -2.464412 -1.573810 2.682333 -44.703079 -159.012637 -2.669909 -3.215191 -1.872467 1.924591 143.552258 33.419586 41.956643 -2.654975 -1.527857 1.513048 150.560469 28.267455 -20.206835 -2.018845 -1.151995 1.108071 -0.000002 -0.000000 0.000000 -9.108382 -0.517542 2.260180 111.263160 15.646836 -22.786980 -3.700059 0.000311 0.001571 107.690479 13.709402 -18.652958 -2.850085 0.000365 -0.000211 105.891606 11.329762 -14.967673 -2.772134 -0.000001 -0.000015 -0.000000 0.000001 0.000000 -9.532600 0.000257 0.000291 102.933171 18.673029 -23.510729 -3.700076 0.000320 0.004022 102.239818 14.741715 -18.108508 -2.950067 0.000331 -0.001759 104.478815 12.489622 -16.072885 -2.946626 -0.000015 -0.000154 0.000000 0.000000 0.000000 -9.103710 -0.042784 -1.864819 98.379067 21.617513 -24.881790 -3.379349 0.000302 -0.000779 99.827449 13.220603 -15.700513 -2.889776 0.000338 0.000683 106.886464 8.385526 -11.355165 -2.638806 -0.000016 0.000941 -0.000000 -0.000001 -0.000001 -8.076777 -0.486401 -3.806014 84.913021 22.178545 -20.188438 -3.600061 0.000253 -0.003505 88.482936 12.924127 -12.224088 -2.100017 0.000312 -0.005454 94.079032 7.000401 -7.276025 -2.115767 -0.000054 -0.003683 -0.000006 0.000002 -0.000001 4.570446 11.014691 -2.160851 -0.000018 0.000010 -0.000021 10.592397 -0.524480 -2.232337 73.848866 -11.250505 8.466556 27.841831 0.000070 -0.000214 103.662758 -72.268825 85.776931 28.328823 -0.000029 0.000018 0.000022 -0.000089 0.000000 2.466182 -1.576159 2.681881 -11.652913 157.095744 -62.306154 3.217762 -1.871674 1.916391 160.837281 -34.023959 -11.465195 2.656092 -1.528642 1.514465 148.667974 -25.329362 47.016242 2.020891 -1.154069 1.115150 -0.000002 0.000001 0.000002 9.109393 -0.517840 2.259734 93.466740 -18.393025 19.506156 3.700042 0.000178 -0.000466 90.935534 -11.890466 12.101740 2.850046 0.000226 0.000206 89.632190 -8.475391 8.420120 2.774890 -0.000032 -0.000026 0.000004 -0.000001 -0.000001 9.533472 0.000226 -0.000070 94.534312 -16.562061 17.896593 3.700030 0.000227 -0.000380 96.303345 -8.872427 9.898709 2.950043 0.000198 -0.000208 97.124511 -10.162008 11.505946 2.952873 -0.000015 0.000061 -0.000005 -0.000000 0.000000 9.104603 -0.042830 -1.865220 94.683627 -15.692406 17.013889 3.150050 0.000238 -0.000098 101.395483 -9.426242 11.505087 2.950013 0.000237 -0.000080 103.572825 -9.669471 12.266082 2.644332 0.000014 0.000060 -0.000004 -0.000001 0.000000 8.077862 -0.486703 -3.806394 87.081599 -17.570125 17.273431 3.600009 0.000197 0.014550 88.293370 -14.062570 14.152184 2.100056 0.000207 0.007548 89.652414 -11.437570 11.844706 2.125519 -0.000014 0.007516 0.000001 0.000002 0.000000 -8.207786 -6.751667 -1.599560 -0.077001 -0.000003 0.000080 -0.000002 -44.370110 0.345938 0.153719 -0.000000 -0.000000 0.000000 -44.423679 -3.043532 -0.076700 0.000000 -0.000002 -0.000006 -8.728667 10.710559 -0.000009 -0.000000 -0.000000 -0.000001 -0.000679 9.278123 0.000000 -0.000000 -0.000000 8.207792 -6.751710 -1.599556 -0.074518 -0.000003 0.000081 -0.000002 -44.370014 0.346960 0.148822 0.000002 0.000000 -0.000001 -44.423664 -3.044403 -0.074314 0.000000 -0.000002 -0.000004 -8.728671 10.710558 0.000007 -0.000000 -0.000000 0.000000 -0.000680 9.278137 -0.000000 0.000000 -0.000001 
